<?xml version="1.0" standalone="no"?>
<!DOCTYPE svg PUBLIC "-//W3C//DTD SVG 20010904//EN"
 "http://www.w3.org/TR/2001/REC-SVG-20010904/DTD/svg10.dtd">
<svg version="1.0" xmlns="http://www.w3.org/2000/svg"
 width="512.000000pt" height="512.000000pt" viewBox="0 0 512.000000 512.000000"
 preserveAspectRatio="xMidYMid meet">

<g transform="translate(0.000000,512.000000) scale(0.100000,-0.100000)"
fill="#000000" stroke="none">
<path d="M2540 5079 c-159 -26 -289 -155 -320 -318 -5 -29 -10 -171 -10 -315
l0 -262 -49 -48 -49 -48 -3 97 c-4 95 -5 97 -37 126 -41 37 -89 39 -129 5 -27
-23 -28 -28 -31 -132 l-4 -107 -81 87 c-79 82 -84 86 -125 86 -58 0 -102 -41
-102 -94 0 -32 12 -49 95 -138 52 -56 92 -105 89 -110 -3 -4 -13 -8 -23 -8
-10 0 -50 -11 -89 -24 l-71 -25 -33 40 c-50 59 -145 126 -221 154 -38 14 -76
25 -85 25 -44 1 -43 10 14 230 48 184 55 225 52 285 -4 81 -24 128 -76 180
-98 100 -251 108 -366 20 l-46 -35 -38 42 c-107 119 -297 118 -405 -2 -49 -54
-69 -100 -72 -173 l-4 -59 -53 -2 c-61 -3 -141 -35 -181 -74 -16 -15 -41 -49
-55 -77 -22 -41 -26 -63 -26 -125 0 -62 4 -84 26 -125 34 -65 51 -79 253 -220
94 -65 174 -121 178 -125 5 -4 -12 -37 -37 -74 -105 -154 -123 -353 -46 -522
16 -35 69 -122 119 -193 50 -72 91 -132 91 -135 0 -2 -51 -6 -113 -8 -141 -5
-198 -29 -280 -118 -207 -224 -95 -587 201 -651 l51 -10 3 -552 4 -552 26 -97
c59 -217 154 -378 312 -533 205 -200 430 -301 726 -326 80 -7 501 -9 1180 -6
936 3 1063 6 1130 20 259 58 456 168 625 349 133 143 221 304 277 505 21 73
22 103 26 496 l3 417 -31 31 c-28 28 -36 31 -73 26 -28 -4 -49 -14 -64 -32
-23 -26 -23 -28 -23 -363 0 -378 -8 -466 -52 -600 -113 -340 -415 -592 -771
-641 -107 -15 -2175 -15 -2284 0 -378 51 -695 338 -795 721 -20 79 -22 109
-25 610 l-4 528 2098 2 2098 3 67 33 c82 40 157 119 190 200 18 46 22 76 23
157 0 88 -4 107 -27 158 -53 114 -170 205 -289 225 -41 7 -42 8 -59 68 -9 33
-33 90 -53 127 l-36 66 34 50 c97 145 121 350 61 521 -30 87 -100 194 -162
249 l-44 39 10 71 c24 168 -41 362 -163 490 -60 63 -162 126 -253 157 -112 39
-254 39 -367 0 -137 -46 -266 -146 -327 -252 l-24 -41 -86 -6 c-104 -7 -165
-29 -185 -68 -44 -85 28 -160 130 -136 22 5 79 7 127 4 111 -6 135 7 177 95
120 252 440 315 645 127 60 -55 109 -139 125 -217 15 -74 14 -107 -9 -194 -24
-93 -16 -127 38 -160 139 -86 208 -216 200 -377 -5 -105 -32 -170 -107 -254
-68 -77 -70 -114 -9 -184 39 -46 88 -134 88 -160 0 -10 -103 -13 -480 -13
-302 0 -480 4 -480 10 0 18 83 235 94 246 6 6 90 45 186 88 101 44 184 88 198
102 32 36 30 93 -4 128 -42 41 -73 39 -192 -14 -47 -21 -88 -37 -89 -36 -2 2
24 75 57 162 33 87 60 175 60 194 0 46 -21 76 -65 90 -28 9 -40 8 -69 -5 -38
-18 -52 -47 -131 -262 -21 -57 -41 -103 -44 -103 -4 0 -26 43 -50 96 -45 97
-71 124 -121 124 -50 0 -100 -49 -100 -98 0 -9 38 -100 85 -201 47 -101 85
-189 85 -195 0 -6 -26 -81 -59 -166 l-58 -155 -187 -3 -186 -2 0 919 c0 643
-3 936 -11 973 -44 207 -239 340 -449 307z m122 -199 c50 -14 97 -55 119 -105
18 -38 19 -90 19 -993 l0 -952 -42 22 c-32 16 -66 23 -134 26 -79 4 -98 1
-152 -21 l-62 -25 0 951 c0 946 0 951 21 994 43 89 135 129 231 103z m-2017
-212 c16 -15 41 -65 70 -143 54 -143 77 -170 139 -162 57 8 79 38 106 148 32
127 65 159 134 128 53 -25 52 -44 -17 -320 l-63 -254 -180 -68 c-98 -37 -186
-66 -194 -64 -26 7 -419 287 -430 307 -17 32 -11 70 15 95 38 39 70 32 164
-35 98 -70 143 -79 186 -36 42 42 41 65 -9 201 -25 69 -46 136 -46 149 0 28
51 76 80 76 10 0 30 -10 45 -22z m621 -803 c49 -15 141 -75 150 -98 2 -7 -33
-50 -79 -97 -63 -65 -92 -105 -125 -170 -47 -96 -82 -229 -85 -326 -2 -62 0
-67 31 -95 67 -60 162 -15 162 78 1 56 31 169 65 240 89 189 277 305 538 333
82 8 218 1 268 -15 18 -6 19 -24 19 -421 l0 -414 -683 0 -684 0 -20 23 c-11
12 -55 73 -97 134 -89 130 -96 108 59 166 60 23 96 43 109 61 27 36 26 89 -3
120 -41 44 -69 42 -211 -10 -72 -26 -133 -44 -138 -40 -4 4 -7 49 -7 99 1 72
6 102 22 139 29 63 96 134 155 164 38 19 210 85 358 137 32 11 149 6 196 -8z
m946 -1312 c4 -111 9 -149 26 -193 12 -30 22 -56 22 -57 0 -2 -413 -3 -917 -3
-1028 0 -954 -5 -1017 73 -25 31 -31 49 -34 102 -7 102 36 172 123 203 20 7
316 11 911 11 l882 1 4 -137z m503 100 c144 -100 91 -331 -79 -350 -66 -8
-112 4 -153 40 -117 103 -85 282 62 336 48 17 124 5 170 -26z m2118 9 c103
-65 119 -231 31 -314 -16 -15 -42 -32 -57 -37 -19 -8 -321 -11 -943 -11 -503
0 -914 2 -914 4 0 2 10 25 22 52 19 41 23 72 26 192 l4 142 897 -2 896 -3 38
-23z"/>
<path d="M1325 1801 c-37 -16 -60 -51 -60 -93 0 -33 6 -45 33 -69 l32 -29 199
0 c199 0 200 0 229 25 39 32 48 74 27 114 -28 55 -54 61 -257 60 -101 0 -192
-4 -203 -8z"/>
<path d="M2394 1794 c-57 -28 -72 -103 -30 -151 l24 -28 217 0 217 0 24 28
c45 52 25 134 -38 156 -18 6 -107 11 -207 11 -138 0 -183 -4 -207 -16z"/>
<path d="M3472 1795 c-64 -28 -75 -114 -20 -160 29 -25 31 -25 224 -25 216 0
242 6 264 59 16 39 5 82 -26 112 -25 23 -31 24 -217 26 -151 2 -199 0 -225
-12z"/>
<path d="M1330 1319 c-58 -23 -82 -76 -60 -130 22 -53 49 -59 259 -59 121 0
199 4 215 11 24 11 56 63 56 91 0 32 -40 77 -77 87 -48 14 -359 13 -393 0z"/>
<path d="M2413 1323 c-12 -2 -34 -18 -48 -34 -35 -43 -34 -92 4 -130 l29 -29
207 0 207 0 29 29 c57 57 28 149 -52 165 -34 7 -340 6 -376 -1z"/>
<path d="M3483 1319 c-71 -21 -89 -112 -34 -161 l31 -28 196 0 c216 0 241 6
264 60 17 41 3 87 -33 114 -26 19 -43 21 -210 23 -100 1 -197 -3 -214 -8z"/>
<path d="M1295 816 c-32 -32 -40 -69 -25 -107 24 -56 35 -59 258 -59 227 0
242 4 262 66 9 27 9 42 0 65 -24 57 -35 59 -263 59 -206 0 -208 0 -232 -24z"/>
<path d="M2369 811 c-21 -22 -29 -39 -29 -66 0 -27 8 -44 29 -66 l29 -29 207
0 207 0 29 29 c38 39 39 87 3 130 l-26 31 -210 0 -210 0 -29 -29z"/>
<path d="M3457 829 c-24 -14 -49 -72 -41 -96 13 -41 28 -61 51 -72 31 -14 407
-15 434 -1 53 29 61 121 12 160 -24 19 -39 20 -232 20 -128 0 -213 -5 -224
-11z"/>
</g>
</svg>
