<?xml version="1.0" standalone="no"?>
<!DOCTYPE svg PUBLIC "-//W3C//DTD SVG 20010904//EN"
 "http://www.w3.org/TR/2001/REC-SVG-20010904/DTD/svg10.dtd">
<svg version="1.0" xmlns="http://www.w3.org/2000/svg"
 width="512.000000pt" height="512.000000pt" viewBox="0 0 512.000000 512.000000"
 preserveAspectRatio="xMidYMid meet">

<g transform="translate(0.000000,512.000000) scale(0.100000,-0.100000)"
fill="#000000" stroke="none">
<path d="M1575 5106 c-117 -37 -220 -128 -276 -241 -19 -40 -76 -220 -140
-444 l-106 -376 -219 -5 c-204 -5 -221 -6 -255 -27 -141 -88 -16 -314 237
-430 43 -20 54 -29 48 -42 -68 -161 -71 -278 -9 -401 49 -97 149 -189 250
-230 49 -20 51 -22 70 -87 49 -173 177 -374 336 -528 l99 -96 0 -85 c0 -101
22 -86 -215 -148 -791 -209 -1193 -482 -1305 -886 -16 -60 -25 -160 -47 -515
-27 -438 -27 -441 -7 -480 13 -28 32 -47 64 -62 l44 -23 2284 0 c2509 0 2327
-5 2365 59 16 27 17 91 17 788 0 671 -2 761 -16 781 -28 40 -66 52 -169 52
l-95 0 0 279 0 279 153 4 c144 3 155 5 207 31 75 39 143 108 177 181 l28 61 3
458 3 457 -25 25 c-32 32 -70 32 -101 0 l-25 -24 0 -438 c0 -405 -2 -441 -19
-478 -10 -22 -31 -52 -47 -67 -51 -48 -92 -58 -228 -58 l-125 0 -3 526 -3 526
-24 19 c-30 25 -62 24 -95 -2 l-26 -20 0 -525 0 -525 -143 3 c-137 3 -145 4
-185 30 -22 15 -54 49 -69 75 l-28 48 -3 447 -3 447 -26 21 c-42 33 -85 25
-108 -21 -13 -23 -15 -98 -15 -437 0 -235 4 -432 10 -463 22 -117 92 -209 198
-261 65 -32 70 -33 219 -36 l153 -3 -2 -277 -3 -277 -105 -5 c-69 -3 -113 -10
-128 -20 -33 -22 -52 -71 -52 -135 l0 -57 -52 45 c-162 138 -434 274 -748 375
-106 34 -457 132 -474 132 -3 0 -6 41 -6 91 l0 91 93 92 c52 50 121 128 155
174 71 96 153 254 183 352 l20 68 77 38 c100 49 181 129 225 221 30 64 32 75
32 178 0 96 -3 118 -26 171 l-25 61 84 43 c195 100 313 276 249 374 -37 56
-80 66 -305 66 -200 0 -203 0 -212 23 -5 12 -55 182 -110 377 -55 195 -114
383 -131 418 -44 90 -135 184 -218 225 l-66 32 -610 2 c-475 2 -619 -1 -650
-11z m1260 -160 c56 -26 113 -84 146 -148 12 -24 39 -100 60 -170 l37 -128
-350 0 -349 0 -24 -25 c-14 -13 -25 -36 -25 -50 0 -14 11 -37 25 -50 l24 -25
370 0 370 0 15 -52 c8 -29 26 -93 41 -143 14 -49 25 -95 25 -102 0 -11 -188
-13 -996 -13 -944 0 -996 1 -992 18 3 9 23 79 44 155 l39 137 396 0 c384 0
396 1 417 20 32 30 30 82 -4 109 -26 20 -38 21 -395 21 -203 0 -369 3 -369 7
0 20 74 252 92 287 43 84 108 146 174 166 16 4 288 9 604 9 l575 1 50 -24z
m885 -1085 c-123 -174 -518 -282 -1175 -322 -207 -13 -651 -7 -850 11 -503 45
-827 135 -966 271 -27 26 -49 52 -49 58 0 8 455 11 1531 11 l1530 0 -21 -29z
m-2580 -593 l0 -209 -31 18 c-17 10 -51 40 -75 67 -79 87 -94 207 -40 314 l25
50 61 -15 60 -15 0 -210z m2286 178 c27 -57 32 -149 12 -207 -18 -54 -62 -111
-112 -147 l-46 -33 0 209 0 209 53 15 c28 8 56 12 61 10 4 -2 19 -28 32 -56z
m-1981 -20 c66 -9 179 -21 250 -28 176 -17 835 -17 1025 0 144 13 344 37 389
48 l23 5 -5 -253 c-2 -154 -9 -269 -16 -293 -59 -194 -151 -344 -303 -494
-101 -99 -176 -153 -293 -211 -121 -59 -204 -82 -306 -82 -357 0 -799 382
-899 776 -17 68 -20 112 -20 318 0 223 1 239 18 234 9 -3 71 -12 137 -20z
m531 -1420 c105 -34 214 -47 312 -34 87 10 226 54 304 95 29 15 56 29 61 31 4
2 7 -21 7 -51 0 -239 -153 -427 -381 -468 -191 -34 -387 69 -476 248 -34 69
-38 85 -41 175 l-4 99 68 -34 c38 -19 105 -46 150 -61z m-337 -178 c47 -160
219 -325 396 -381 106 -33 253 -30 360 7 173 60 318 197 373 354 10 29 21 55
24 58 3 3 51 -7 107 -22 l101 -27 0 -399 0 -399 -325 3 c-322 3 -324 3 -346
-19 -29 -29 -29 -77 0 -106 l22 -22 550 0 c534 0 551 -1 565 -19 11 -16 14
-82 14 -363 l0 -343 -1270 0 -1270 0 0 349 0 350 22 15 c20 14 89 16 549 16
504 0 527 1 543 19 25 27 24 78 -3 104 -21 22 -28 22 -331 25 l-310 3 0 393 0
392 98 26 c53 15 102 27 108 27 6 1 16 -18 23 -41z m-379 -428 l0 -370 -100 0
-100 0 0 339 0 339 88 30 c48 17 93 31 100 31 9 1 12 -79 12 -369z m2000 341
l85 -27 3 -340 2 -341 -92 -6 c-51 -3 -96 -3 -100 0 -5 2 -8 170 -8 374 0 289
3 369 13 368 6 0 50 -13 97 -28z m-2394 -762 c-77 -68 -76 -61 -76 -468 l0
-361 -310 0 -310 0 0 23 c0 122 52 824 65 871 57 216 234 392 545 546 l125 61
3 -317 2 -316 -44 -39z m2758 617 c189 -92 345 -204 427 -309 l39 -49 0 -544
0 -544 -230 0 -230 0 0 349 c0 233 -4 359 -11 382 -16 47 -54 96 -90 114 l-29
16 0 319 c0 176 3 320 6 320 4 0 57 -24 118 -54z m1036 -336 l0 -270 -210 0
-210 0 0 270 0 270 210 0 210 0 0 -270z m0 -540 l0 -120 -210 0 -210 0 0 120
0 120 210 0 210 0 0 -120z m0 -420 l0 -150 -210 0 -210 0 0 150 0 150 210 0
210 0 0 -150z"/>
<path d="M1650 3221 c-115 -24 -178 -113 -120 -171 25 -25 70 -26 101 -2 42
33 72 34 123 7 26 -14 56 -25 67 -25 28 0 69 44 69 73 0 73 -136 139 -240 118z"/>
<path d="M2670 3221 c-103 -21 -166 -92 -135 -150 23 -46 74 -55 117 -22 41
33 69 34 121 6 26 -14 57 -25 68 -25 28 0 69 44 69 73 0 73 -136 139 -240 118z"/>
<path d="M2009 2659 c-31 -11 -54 -58 -44 -88 10 -32 83 -89 138 -107 178 -59
416 69 329 177 -26 31 -70 29 -117 -6 -30 -23 -50 -30 -99 -33 -56 -3 -65 0
-116 32 -30 20 -57 36 -60 35 -3 0 -17 -5 -31 -10z"/>
<path d="M1174 579 c-22 -11 -44 -48 -44 -75 0 -8 11 -26 25 -39 23 -24 30
-25 140 -25 111 0 117 1 142 26 20 20 24 31 19 57 -11 56 -25 62 -149 64 -65
2 -121 -2 -133 -8z"/>
<path d="M2986 569 c-33 -26 -36 -79 -6 -109 18 -18 33 -20 138 -20 111 0 120
1 140 23 31 33 29 80 -4 106 -23 18 -41 21 -134 21 -93 0 -111 -3 -134 -21z"/>
</g>
</svg>
