<?xml version="1.0" standalone="no"?>
<!DOCTYPE svg PUBLIC "-//W3C//DTD SVG 20010904//EN"
 "http://www.w3.org/TR/2001/REC-SVG-20010904/DTD/svg10.dtd">
<svg version="1.0" xmlns="http://www.w3.org/2000/svg"
 width="512.000000pt" height="512.000000pt" viewBox="0 0 512.000000 512.000000"
 preserveAspectRatio="xMidYMid meet">

<g transform="translate(0.000000,512.000000) scale(0.100000,-0.100000)"
fill="#000000" stroke="none">
<path d="M442 4573 l-274 -548 4 -260 3 -261 33 -67 c22 -44 50 -81 83 -109
l49 -43 0 -787 0 -788 -85 0 -85 0 0 -855 0 -855 2390 0 2390 0 0 855 0 855
-85 0 -85 0 0 788 0 787 49 43 c33 28 61 65 83 109 l33 67 3 261 4 260 -274
548 -273 547 -1845 0 -1845 0 -273 -547z m548 365 c0 -7 -64 -237 -142 -510
l-142 -498 -183 0 -183 0 0 30 c0 19 86 203 240 510 l240 480 85 0 c61 0 85
-4 85 -12z m358 -20 c-3 -18 -36 -248 -74 -510 l-67 -478 -162 0 -162 0 146
510 145 510 89 0 90 0 -5 -32z m362 -478 l0 -510 -166 0 -166 0 5 28 c3 15 36
244 73 510 l69 482 92 0 93 0 0 -510z m510 0 l0 -510 -170 0 -170 0 0 510 0
510 170 0 170 0 0 -510z m510 0 l0 -510 -170 0 -170 0 0 510 0 510 170 0 170
0 0 -510z m510 0 l0 -510 -170 0 -170 0 0 510 0 510 170 0 170 0 0 -510z m424
28 c37 -266 70 -495 73 -510 l6 -28 -167 0 -166 0 0 510 0 510 93 0 92 0 69
-482z m427 -28 l146 -510 -162 0 -162 0 -67 478 c-38 262 -71 492 -74 510 l-5
32 90 0 89 0 145 -510z m449 30 c154 -307 240 -491 240 -510 l0 -30 -183 0
-183 0 -142 498 c-78 273 -142 503 -142 510 0 8 24 12 85 12 l85 0 240 -480z
m-3860 -820 c0 -114 -12 -153 -59 -193 -60 -50 -148 -55 -210 -10 -50 37 -71
96 -71 205 l0 98 170 0 170 0 0 -100z m510 -7 c0 -115 -12 -152 -63 -194 -51
-41 -141 -43 -200 -4 -54 35 -70 78 -75 197 l-5 108 172 0 171 0 0 -107z m518
-1 c-5 -119 -21 -162 -75 -197 -59 -39 -149 -37 -200 4 -51 42 -63 79 -63 194
l0 107 171 0 172 0 -5 -108z m512 10 c0 -109 -21 -168 -71 -205 -62 -45 -150
-40 -210 10 -47 40 -59 79 -59 193 l0 100 170 0 170 0 0 -98z m510 -2 c0 -114
-12 -153 -59 -193 -67 -56 -155 -56 -222 0 -47 40 -59 79 -59 193 l0 100 170
0 170 0 0 -100z m510 0 c0 -114 -12 -153 -59 -193 -60 -50 -148 -55 -210 -10
-50 37 -71 96 -71 205 l0 98 170 0 170 0 0 -100z m510 -7 c0 -115 -12 -152
-63 -194 -51 -41 -141 -43 -200 -4 -54 35 -70 78 -75 197 l-5 108 172 0 171 0
0 -107z m518 -1 c-5 -119 -21 -162 -75 -197 -59 -39 -149 -37 -200 4 -51 42
-63 79 -63 194 l0 107 171 0 172 0 -5 -108z m512 10 c0 -109 -21 -168 -71
-205 -62 -45 -150 -40 -210 10 -47 40 -59 79 -59 193 l0 100 170 0 170 0 0
-98z m-3870 -388 c101 -40 242 -15 326 59 l44 39 46 -41 c114 -100 290 -101
421 -2 l51 39 24 -25 c31 -35 129 -80 189 -88 84 -12 177 18 255 81 l41 33 24
-25 c13 -14 52 -39 87 -56 119 -59 262 -39 363 50 l36 31 24 -25 c13 -14 53
-39 88 -56 118 -56 251 -40 351 42 l45 37 45 -35 c70 -53 125 -74 205 -76 87
-1 161 24 221 77 l44 39 46 -41 c114 -100 290 -101 421 -2 l51 39 24 -25 c29
-32 134 -83 170 -83 63 0 58 63 58 -776 l0 -764 -85 0 -85 0 0 340 0 340 -130
0 -130 0 0 153 c0 139 -2 156 -24 202 -22 47 -57 88 -100 118 -18 13 -18 16 7
97 14 47 25 85 24 86 -14 9 -158 51 -161 46 -2 -4 -17 -50 -35 -102 l-31 -95
-54 -28 c-52 -28 -55 -28 -80 -12 -32 21 -32 24 -1 115 14 40 24 74 22 75 -12
10 -158 52 -161 47 -2 -4 -17 -50 -35 -102 l-31 -95 -54 -28 c-52 -28 -55 -28
-80 -12 -32 21 -32 24 -1 115 14 40 24 74 22 75 -12 10 -158 52 -161 47 -2 -4
-18 -51 -35 -104 -30 -89 -35 -98 -64 -107 -50 -17 -103 -66 -131 -123 -25
-49 -26 -60 -26 -210 l0 -158 -130 0 -130 0 0 -340 0 -340 -170 0 -170 0 0 54
c0 201 -112 369 -283 427 l-52 18 -7 88 c-10 116 -29 177 -75 243 -85 122
-194 179 -356 188 -117 6 -173 -11 -213 -64 l-26 -33 -31 23 c-70 53 -132 70
-264 70 -135 1 -154 -6 -200 -73 -56 -82 -35 -292 40 -403 l18 -28 -58 0
c-109 0 -184 -60 -199 -158 -12 -77 10 -214 45 -284 17 -34 31 -63 31 -65 0
-1 -56 -3 -125 -3 l-125 0 0 764 c0 839 -5 776 58 776 36 0 141 51 171 83 l23
26 52 -39 c28 -21 71 -46 96 -56z m2387 -558 c28 -24 28 -24 31 -170 l3 -146
-85 0 -86 0 0 144 c0 141 0 144 26 170 34 33 74 34 111 2z m344 -5 l29 -29 0
-141 0 -141 -85 0 -85 0 0 143 c1 147 4 162 45 185 33 19 65 13 96 -17z m322
18 c39 -18 47 -50 47 -194 l0 -135 -85 0 -85 0 0 141 0 141 29 29 c31 31 55
36 94 18z m-2771 -175 c103 -34 162 -121 174 -253 l7 -71 -74 0 c-90 0 -158
28 -208 85 -45 52 -59 88 -67 178 l-7 77 65 0 c35 0 85 -7 110 -16z m522 -4
c60 -23 118 -79 143 -138 8 -20 17 -69 20 -109 l6 -73 -64 0 c-35 0 -81 5
-101 10 -57 16 -119 69 -150 129 -23 44 -28 66 -28 127 l0 74 60 0 c35 0 81
-8 114 -20z m2556 -575 l0 -255 -685 0 -685 0 0 255 0 255 685 0 685 0 0 -255z
m-3211 49 c89 -48 131 -123 131 -234 l0 -70 -61 0 c-86 0 -133 17 -189 67 -58
52 -78 99 -87 200 l-6 76 81 -5 c62 -5 92 -12 131 -34z m507 4 c84 -42 131
-121 141 -238 l6 -70 -74 0 c-112 1 -180 37 -237 125 -21 33 -27 55 -30 129
l-5 89 77 -6 c50 -3 92 -13 122 -29z m509 2 c90 -43 145 -141 145 -257 l0 -53
-72 0 c-167 1 -268 102 -268 269 l0 74 75 -6 c47 -3 93 -14 120 -27z m2705
-1165 l0 -685 -2220 0 -2220 0 0 685 0 685 2220 0 2220 0 0 -685z"/>
<path d="M3070 1965 l0 -85 515 0 516 0 -3 83 -3 82 -512 3 -513 2 0 -85z"/>
<path d="M3340 1325 l-96 -96 -49 23 c-41 19 -67 23 -145 23 -157 0 -227 -43
-351 -218 -40 -56 -73 -103 -75 -105 -1 -2 -33 27 -70 65 -124 123 -253 173
-450 173 -99 0 -115 -2 -144 -22 -65 -44 -75 -68 -78 -186 -7 -220 65 -382
226 -511 119 -96 255 -135 447 -129 l120 4 293 147 c202 102 307 160 337 188
55 51 94 129 102 203 l6 56 83 0 84 0 0 85 0 85 -107 0 -108 0 98 98 97 97
-58 58 c-32 31 -60 57 -62 57 -3 0 -48 -43 -100 -95z m-205 -234 c46 -21 79
-54 94 -94 27 -70 0 -165 -56 -205 -27 -19 -427 -222 -438 -222 -3 0 -5 16 -5
36 0 19 -5 66 -11 103 l-11 68 103 144 c85 118 112 148 149 167 54 27 120 28
175 3z m-822 -108 c155 -73 247 -227 247 -413 l0 -60 -47 0 c-134 0 -243 40
-326 119 -91 86 -137 194 -137 325 l0 68 98 -4 c83 -3 107 -8 165 -35z"/>
</g>
</svg>
